{
  "asset": {
    "version": "2.0",
    "generator": "THREE.GLTFExporter"
  },
  "scenes": [
    {
      "name": "Scene",
      "nodes": [
        3
      ]
    }
  ],
  "scene": 0,
  "nodes": [
    {
      "name": "chair1_1",
      "mesh": 0
    },
    {
      "name": "chair1_2",
      "mesh": 1
    },
    {
      "matrix": [
        1,
        0,
        0,
        0,
        0,
        -1.3435885648505064e-7,
        0.9999999657714511,
        0,
        0,
        -0.9999999657714511,
        -1.3435885648505064e-7,
        0,
        0,
        0,
        0,
        1
      ],
      "name": "chair1",
      "extras": {
        "name": "chair1"
      },
      "children": [
        0,
        1
      ]
    },
    {
      "name": "chair1.glb",
      "children": [
        2
      ]
    }
  ],
  "bufferViews": [
    {
      "buffer": 0,
      "byteOffset": 0,
      "byteLength": 14160,
      "target": 34962,
      "byteStride": 12
    },
    {
      "buffer": 0,
      "byteOffset": 14160,
      "byteLength": 14160,
      "target": 34962,
      "byteStride": 12
    },
    {
      "buffer": 0,
      "byteOffset": 28320,
      "byteLength": 9440,
      "target": 34962,
      "byteStride": 8
    },
    {
      "buffer": 0,
      "byteOffset": 37760,
      "byteLength": 11136,
      "target": 34963
    },
    {
      "buffer": 0,
      "byteOffset": 48896,
      "byteLength": 92340,
      "target": 34962,
      "byteStride": 12
    },
    {
      "buffer": 0,
      "byteOffset": 141236,
      "byteLength": 92340,
      "target": 34962,
      "byteStride": 12
    },
    {
      "buffer": 0,
      "byteOffset": 233576,
      "byteLength": 61560,
      "target": 34962,
      "byteStride": 8
    },
    {
      "buffer": 0,
      "byteOffset": 295136,
      "byteLength": 63096,
      "target": 34963
    }
  ],
  "buffers": [
    {
      "byteLength": 358232,
      "uri": "data:application/octet-stream;base64,"
    }
  ],
  "accessors": [
    {
      "bufferView": 0,
      "componentType": 5126,
      "count": 1180,
      "max": [
        0.17870557308197021,
        0.1653476357460022,
        0.0014412105083465576
      ],
      "min": [
        -0.19252325594425201,
        -0.2035353034734726,
        -0.2832182049751282
      ],
      "type": "VEC3"
    },
    {
      "bufferView": 1,
      "componentType": 5126,
      "count": 1180,
      "max": [
        0.9849984049797058,
        0.999440610408783,
        0.9924936294555664
      ],
      "min": [
        -0.9849938750267029,
        -0.9963663816452026,
        -0.9755208492279053
      ],
      "type": "VEC3"
    },
    {
      "bufferView": 2,
      "componentType": 5126,
      "count": 1180,
      "max": [
        1.1394000053405762,
        1.0525000095367432
      ],
      "min": [
        -0.3294999897480011,
        -0.03569996356964111
      ],
      "type": "VEC2"
    },
    {
      "bufferView": 3,
      "componentType": 5123,
      "count": 5568,
      "max": [
        1179
      ],
      "min": [
        0
      ],
      "type": "SCALAR"
    },
    {
      "bufferView": 4,
      "componentType": 5126,
      "count": 7695,
      "max": [
        0.27229785919189453,
        0.21220047771930695,
        -0.2425510287284851
      ],
      "min": [
        -0.2839818596839905,
        -0.2313598096370697,
        -0.6617168188095093
      ],
      "type": "VEC3"
    },
    {
      "bufferView": 5,
      "componentType": 5126,
      "count": 7695,
      "max": [
        0.9999869465827942,
        0.999996542930603,
        0.9999979734420776
      ],
      "min": [
        -0.999987006187439,
        -0.9999110698699951,
        -0.999931812286377
      ],
      "type": "VEC3"
    },
    {
      "bufferView": 6,
      "componentType": 5126,
      "count": 7695,
      "max": [
        1,
        1
      ],
      "min": [
        0,
        0.008599996566772461
      ],
      "type": "VEC2"
    },
    {
      "bufferView": 7,
      "componentType": 5123,
      "count": 31548,
      "max": [
        7694
      ],
      "min": [
        0
      ],
      "type": "SCALAR"
    }
  ],
  "materials": [
    {
      "pbrMetallicRoughness": {
        "metallicFactor": 0,
        "roughnessFactor": 0.5,
        "baseColorTexture": {
          "index": 0
        }
      },
      "doubleSided": true,
      "name": "legs"
    },
    {
      "pbrMetallicRoughness": {
        "metallicFactor": 0,
        "roughnessFactor": 0.5,
        "baseColorTexture": {
          "index": 1
        }
      },
      "doubleSided": true,
      "name": "body"
    }
  ],
  "textures": [
    {
      "sampler": 0,
      "source": 0
    },
    {
      "sampler": 1,
      "source": 1
    }
  ],
  "samplers": [
    {
      "magFilter": 9729,
      "minFilter": 9987,
      "wrapS": 10497,
      "wrapT": 10497
    },
    {
      "magFilter": 9729,
      "minFilter": 9987,
      "wrapS": 10497,
      "wrapT": 10497
    }
  ],
  "images": [
    {
      "mimeType": "image/jpeg",
      "uri": "data:image/jpeg;base64,"
    },
    {
      "mimeType": "image/jpeg",
      "uri": "data:image/jpeg;base64,"
    }
  ],
  "meshes": [
    {
      "primitives": [
        {
          "mode": 4,
          "attributes": {
            "POSITION": 0,
            "NORMAL": 1,
            "TEXCOORD_0": 2
          },
          "indices": 3,
          "material": 0
        }
      ]
    },
    {
      "primitives": [
        {
          "mode": 4,
          "attributes": {
            "POSITION": 4,
            "NORMAL": 5,
            "TEXCOORD_0": 6
          },
          "indices": 7,
          "material": 1
        }
      ]
    }
  ]
}