{
  "accessors": [
    {
      "bufferView": 2,
      "componentType": 5126,
      "count": 18414,
      "max": [
        0.2995319962501526,
        0.36320799589157104,
        2.408982992172241
      ],
      "min": [
        -0.3335750102996826,
        -0.27292600274086,
        0.007896999828517437
      ],
      "type": "VEC3"
    },
    {
      "bufferView": 2,
      "byteOffset": 220968,
      "componentType": 5126,
      "count": 18414,
      "max": [
        0.9999532699584961,
        0.9999226331710815,
        0.9999779462814331
      ],
      "min": [
        -0.9999866485595703,
        -0.9997016787528992,
        -1.0
      ],
      "type": "VEC3"
    },
    {
      "bufferView": 3,
      "componentType": 5126,
      "count": 18414,
      "max": [
        0.9998982548713684,
        0.9999325275421143,
        0.9994871020317078,
        1.0
      ],
      "min": [
        -0.9999174475669861,
        -0.9999927282333374,
        -0.9998871088027954,
        1.0
      ],
      "type": "VEC4"
    },
    {
      "bufferView": 1,
      "componentType": 5126,
      "count": 18414,
      "max": [
        0.9708290100097656,
        0.9999579787254333
      ],
      "min": [
        1.9999999949504854e-06,
        2.9000000722589903e-05
      ],
      "type": "VEC2"
    },
    {
      "bufferView": 0,
      "componentType": 5125,
      "count": 102672,
      "type": "SCALAR"
    }
  ],
  "asset": {
    "extras": {
      "author": "Lassi Kaukonen (https://sketchfab.com/thesidekick)",
      "license": "CC-BY-4.0 (http://creativecommons.org/licenses/by/4.0/)",
      "source": "https://sketchfab.com/3d-models/cockatoo-statue-8513f8be202249bbb5b12dff381f09d8",
      "title": "Cockatoo statue"
    },
    "generator": "Sketchfab-11.53.2",
    "version": "2.0"
  },
  "bufferViews": [
    {
      "buffer": 0,
      "byteLength": 410688,
      "name": "floatBufferViews",
      "target": 34963
    },
    {
      "buffer": 0,
      "byteLength": 147312,
      "byteOffset": 410688,
      "byteStride": 8,
      "name": "floatBufferViews",
      "target": 34962
    },
    {
      "buffer": 0,
      "byteLength": 441936,
      "byteOffset": 558000,
      "byteStride": 12,
      "name": "floatBufferViews",
      "target": 34962
    },
    {
      "buffer": 0,
      "byteLength": 294624,
      "byteOffset": 999936,
      "byteStride": 16,
      "name": "floatBufferViews",
      "target": 34962
    }
  ],
  "buffers": [
    {
      "byteLength": 1294560,
      "uri": "scene.bin"
    }
  ],
  "images": [
    {
      "uri": "textures/Cockatoo_baseColor.jpeg"
    },
    {
      "uri": "textures/Cockatoo_metallicRoughness.png"
    },
    {
      "uri": "textures/Cockatoo_normal.png"
    }
  ],
  "materials": [
    {
      "doubleSided": true,
      "name": "Cockatoo",
      "normalTexture": {
        "index": 2
      },
      "occlusionTexture": {
        "index": 1
      },
      "pbrMetallicRoughness": {
        "baseColorTexture": {
          "index": 0
        },
        "metallicFactor": 0.0,
        "metallicRoughnessTexture": {
          "index": 1
        },
        "roughnessFactor": 0.5422546986823624
      }
    }
  ],
  "meshes": [
    {
      "name": "Object_0",
      "primitives": [
        {
          "attributes": {
            "NORMAL": 1,
            "POSITION": 0,
            "TANGENT": 2,
            "TEXCOORD_0": 3
          },
          "indices": 4,
          "material": 0,
          "mode": 4
        }
      ]
    }
  ],
  "nodes": [
    {
      "children": [
        1
      ],
      "matrix": [
        1.0,
        0.0,
        0.0,
        0.0,
        0.0,
        2.220446049250313e-16,
        -1.0,
        0.0,
        0.0,
        1.0,
        2.220446049250313e-16,
        0.0,
        0.0,
        0.0,
        0.0,
        1.0
      ],
      "name": "Sketchfab_model"
    },
    {
      "children": [
        2
      ],
      "name": "Cockatoo_SF.obj.cleaner.materialmerger.gles"
    },
    {
      "mesh": 0,
      "name": "Object_2"
    }
  ],
  "samplers": [
    {
      "magFilter": 9729,
      "minFilter": 9987,
      "wrapS": 10497,
      "wrapT": 10497
    }
  ],
  "scene": 0,
  "scenes": [
    {
      "name": "Sketchfab_Scene",
      "nodes": [
        0
      ]
    }
  ],
  "textures": [
    {
      "sampler": 0,
      "source": 0
    },
    {
      "sampler": 0,
      "source": 1
    },
    {
      "sampler": 0,
      "source": 2
    }
  ]
}
